<svg width="410px" height="331px" viewBox="0 0 410 331" version="1.1" xmlns="http://www.w3.org/2000/svg" xmlns:xlink="http://www.w3.org/1999/xlink">
    <!-- Generator: Sketch 51.2 (57519) - http://www.bohemiancoding.com/sketch -->
    <desc>Created with Sketch.</desc>
    <defs>
        <linearGradient x1="0%" y1="50%" x2="100%" y2="50%" id="linearGradient-1">
            <stop stop-color="#0B9BBE" offset="0%"></stop>
            <stop stop-color="#0089AC" offset="100%"></stop>
        </linearGradient>
        <linearGradient x1="0%" y1="50%" x2="100%" y2="50%" id="linearGradient-2">
            <stop stop-color="#09E8D5" offset="0%"></stop>
            <stop stop-color="#00C7D8" offset="100%"></stop>
        </linearGradient>
        <path d="M20.5977989,2.31942088 L139.719818,65.9696937 C143.745652,68.1208109 145.061343,69.1356167 146.340896,70.4938031 C147.620449,71.8519895 148.535225,73.3779551 149.130113,75.1465804 C149.725001,76.9152058 150,78.5538788 150,83.1183769 L150,178.341525 C150,182.759803 146.418278,186.341525 142,186.341525 C140.684777,186.341525 139.38984,186.017258 138.229829,185.397431 L10.2801822,117.030306 C6.2543484,114.879189 4.93865731,113.864383 3.65910402,112.506197 C2.37955073,111.14801 1.46477472,109.622045 0.869887039,107.85342 C0.274999358,106.084794 1.61465917e-14,104.446121 1.55876019e-14,99.8816231 L8.8817842e-15,14.6672567 C7.93488895e-15,6.93527024 6.2680135,0.667256734 14,0.667256734 C16.3016402,0.667256734 18.5677792,1.23472381 20.5977989,2.31942088 Z" id="path-3"></path>
        <filter x="-15.7%" y="-12.0%" width="131.3%" height="126.3%" filterUnits="objectBoundingBox" id="filter-4">
            <feOffset dx="0" dy="2" in="SourceAlpha" result="shadowOffsetOuter1"></feOffset>
            <feGaussianBlur stdDeviation="7.5" in="shadowOffsetOuter1" result="shadowBlurOuter1"></feGaussianBlur>
            <feComposite in="shadowBlurOuter1" in2="SourceAlpha" operator="out" result="shadowBlurOuter1"></feComposite>
            <feColorMatrix values="0 0 0 0 0   0 0 0 0 0   0 0 0 0 0  0 0 0 0.1 0" type="matrix" in="shadowBlurOuter1"></feColorMatrix>
        </filter>
        <path d="M20.5977989,2.31942088 L139.719818,65.9696937 C143.745652,68.1208109 145.061343,69.1356167 146.340896,70.4938031 C147.620449,71.8519895 148.535225,73.3779551 149.130113,75.1465804 C149.725001,76.9152058 150,78.5538788 150,83.1183769 L150,178.341525 C150,182.759803 146.418278,186.341525 142,186.341525 C140.684777,186.341525 139.38984,186.017258 138.229829,185.397431 L10.2801822,117.030306 C6.2543484,114.879189 4.93865731,113.864383 3.65910402,112.506197 C2.37955073,111.14801 1.46477472,109.622045 0.869887039,107.85342 C0.274999358,106.084794 1.61465917e-14,104.446121 1.55876019e-14,99.8816231 L8.8817842e-15,14.6672567 C7.93488895e-15,6.93527024 6.2680135,0.667256734 14,0.667256734 C16.3016402,0.667256734 18.5677792,1.23472381 20.5977989,2.31942088 Z" id="path-5"></path>
        <filter x="-15.7%" y="-12.0%" width="131.3%" height="126.3%" filterUnits="objectBoundingBox" id="filter-6">
            <feOffset dx="0" dy="2" in="SourceAlpha" result="shadowOffsetOuter1"></feOffset>
            <feGaussianBlur stdDeviation="7.5" in="shadowOffsetOuter1" result="shadowBlurOuter1"></feGaussianBlur>
            <feComposite in="shadowBlurOuter1" in2="SourceAlpha" operator="out" result="shadowBlurOuter1"></feComposite>
            <feColorMatrix values="0 0 0 0 0   0 0 0 0 0   0 0 0 0 0  0 0 0 0.1 0" type="matrix" in="shadowBlurOuter1"></feColorMatrix>
        </filter>
    </defs>
    <g id="Stage" stroke="none" stroke-width="1" fill="none" fill-rule="evenodd">
        <g id="Dribble" transform="translate(-195.000000, -132.000000)">
            <g id="Morphose" transform="translate(245.000000, 178.000000)">
                <g id="Wing" transform="translate(235.000000, 125.000000) scale(-1, 1) translate(-235.000000, -125.000000) translate(160.000000, 0.000000)">
                    <path d="M34.6391028,131.338644 C32.9987026,132.15829 32.3511834,132.587978 31.7310013,133.222746 C31.1727732,133.794103 30.7721746,134.442089 30.5105808,135.196831 C30.2199544,136.035337 30.125,136.806633 30.125,138.640408 L30.125,233.730528 C30.125,234.642056 30.3371027,235.541081 30.7445301,236.356487 C32.1948073,239.259003 35.7234433,240.436275 38.6259592,238.985998 L143.833153,186.417949 C146.02415,185.323192 146.891119,184.747878 147.721801,183.897659 C148.470395,183.131459 149.007793,182.262194 149.358595,181.250072 C149.747865,180.126962 149.875,179.094268 149.875,176.644991 L149.875,96.2030697 C149.875,94.0503113 149.374077,91.9270823 148.411854,90.0013364 C144.986732,83.1464585 136.653145,80.3660926 129.798267,83.7912154 L34.6391028,131.338644 Z" id="Small-Wing" stroke-opacity="0.25" stroke="#FFFFFF" stroke-width="0.25" fill="url(#linearGradient-1)" fill-rule="evenodd"></path>
                    <g id="Grand-Wing">
                        <use fill="black" fill-opacity="1" filter="url(#filter-4)" xlink:href="#path-3"></use>
                        <path stroke-opacity="0.5" stroke="#FFFFFF" stroke-width="0.25" d="M20.5388899,2.42966942 C18.5269955,1.35465714 16.2810898,0.792256734 14,0.792256734 C6.3370491,0.792256734 0.125,7.00430583 0.125,14.6672567 L0.125,99.8816231 C0.125,104.098874 0.33673786,105.876256 0.98836458,107.813569 C1.57750308,109.565102 2.48289959,111.075421 3.75008687,112.420482 C5.15168106,113.908209 6.61952498,114.932588 10.3390911,116.920058 L138.288738,185.287183 C139.430624,185.897325 140.705327,186.216525 142,186.216525 C146.349242,186.216525 149.875,182.690767 149.875,178.341525 L149.875,83.1183769 C149.875,78.9011257 149.663262,77.1237439 149.011635,75.186431 C148.422497,73.4348983 147.5171,71.9245789 146.249913,70.5795185 C144.848319,69.0917913 143.380475,68.0674119 139.660909,66.0799422 L20.5388899,2.42966942 Z" stroke-linejoin="square" fill="url(#linearGradient-2)" fill-rule="evenodd"></path>
                    </g>
                </g>
                <g id="Wing">
                    <path d="M34.6391028,131.338644 C32.9987026,132.15829 32.3511834,132.587978 31.7310013,133.222746 C31.1727732,133.794103 30.7721746,134.442089 30.5105808,135.196831 C30.2199544,136.035337 30.125,136.806633 30.125,138.640408 L30.125,233.730528 C30.125,234.642056 30.3371027,235.541081 30.7445301,236.356487 C32.1948073,239.259003 35.7234433,240.436275 38.6259592,238.985998 L143.833153,186.417949 C146.02415,185.323192 146.891119,184.747878 147.721801,183.897659 C148.470395,183.131459 149.007793,182.262194 149.358595,181.250072 C149.747865,180.126962 149.875,179.094268 149.875,176.644991 L149.875,96.2030697 C149.875,94.0503113 149.374077,91.9270823 148.411854,90.0013364 C144.986732,83.1464585 136.653145,80.3660926 129.798267,83.7912154 L34.6391028,131.338644 Z" id="Small-Wing" stroke-opacity="0.25" stroke="#FFFFFF" stroke-width="0.25" fill="url(#linearGradient-1)" fill-rule="evenodd"></path>
                    <g id="Grand-Wing">
                        <use fill="black" fill-opacity="1" filter="url(#filter-6)" xlink:href="#path-5"></use>
                        <path stroke-opacity="0.5" stroke="#FFFFFF" stroke-width="0.25" d="M20.5388899,2.42966942 C18.5269955,1.35465714 16.2810898,0.792256734 14,0.792256734 C6.3370491,0.792256734 0.125,7.00430583 0.125,14.6672567 L0.125,99.8816231 C0.125,104.098874 0.33673786,105.876256 0.98836458,107.813569 C1.57750308,109.565102 2.48289959,111.075421 3.75008687,112.420482 C5.15168106,113.908209 6.61952498,114.932588 10.3390911,116.920058 L138.288738,185.287183 C139.430624,185.897325 140.705327,186.216525 142,186.216525 C146.349242,186.216525 149.875,182.690767 149.875,178.341525 L149.875,83.1183769 C149.875,78.9011257 149.663262,77.1237439 149.011635,75.186431 C148.422497,73.4348983 147.5171,71.9245789 146.249913,70.5795185 C144.848319,69.0917913 143.380475,68.0674119 139.660909,66.0799422 L20.5388899,2.42966942 Z" stroke-linejoin="square" fill="url(#linearGradient-2)" fill-rule="evenodd"></path>
                    </g>
                </g>
            </g>
        </g>
    </g>
</svg>
